<svg width="12" height="11" xmlns="http://www.w3.org/2000/svg"><defs><linearGradient y2="0" x2=".25" y1="0" x1="0" id="a"><stop offset=".984" stop-color="#ED8A19"/><stop offset="1" stop-color="#AFAFAF"/></linearGradient></defs><path fill="none" d="M-1-1h582v402H-1z"/><path fill="url(#a)" d="M6.234.343L7.516 2.95c.09.181.262.307.461.336l2.868.419a.615.615 0 01.34 1.048l-2.076 2.03a.616.616 0 00-.176.544l.49 2.867a.613.613 0 01-.888.648L5.97 9.49a.61.61 0 00-.57 0l-2.565 1.353a.613.613 0 01-.888-.648l.49-2.867a.616.616 0 00-.176-.544L.186 4.754a.615.615 0 01.339-1.048l2.868-.419a.612.612 0 00.46-.336L5.137.343a.611.611 0 011.098 0z"/></svg>